<svg version="1.1" xmlns="http://www.w3.org/2000/svg" xmlns:xlink="http://www.w3.org/1999/xlink" width="512" height="512" viewBox="0,0,256,256"><g fill="#573f39" fill-rule="nonzero" stroke="none" stroke-width="1" stroke-linecap="butt" stroke-linejoin="miter" stroke-miterlimit="10" stroke-dasharray="" stroke-dashoffset="0" font-family="none" font-weight="none" font-size="none" text-anchor="none" style="mix-blend-mode: normal"><g transform="translate(-0.00001,-0.00003)"><g><g transform="translate(0.17078,0.17078) scale(10.66667,10.66667)"><g id="_01_align_center"><path d="M24,22.586l-6.262,-6.262c3.37833,-4.1318 2.92339,-10.18688 -1.03442,-13.76748c-3.9578,-3.5806 -10.02806,-3.42882 -13.80197,0.34509c-3.77392,3.77392 -3.92569,9.84417 -0.34509,13.80197c3.5806,3.9578 9.63568,4.41275 13.76748,1.03442l6.262,6.262zM10,18c-4.41828,0 -8,-3.58172 -8,-8c0,-4.41828 3.58172,-8 8,-8c4.41828,0 8,3.58172 8,8c-0.00496,4.41622 -3.58378,7.99504 -8,8z"></path></g></g></g></g></g></svg>