<svg version="1.1" xmlns="http://www.w3.org/2000/svg" xmlns:xlink="http://www.w3.org/1999/xlink" width="512" height="512" viewBox="0,0,256,256"><g fill="#573f39" fill-rule="nonzero" stroke="none" stroke-width="1" stroke-linecap="butt" stroke-linejoin="miter" stroke-miterlimit="10" stroke-dasharray="" stroke-dashoffset="0" font-family="none" font-weight="none" font-size="none" text-anchor="none" style="mix-blend-mode: normal"><g transform="scale(10.66667,10.66667)"><path d="M23,11h-10v-10c0,-0.55228 -0.44772,-1 -1,-1v0c-0.55228,0 -1,0.44772 -1,1v10h-10c-0.55228,0 -1,0.44772 -1,1v0c0,0.55228 0.44772,1 1,1h10v10c0,0.55228 0.44772,1 1,1v0c0.55228,0 1,-0.44772 1,-1v-10h10c0.55228,0 1,-0.44772 1,-1v0c0,-0.55228 -0.44772,-1 -1,-1z"></path></g></g></svg>