<svg version="1.1" xmlns="http://www.w3.org/2000/svg" xmlns:xlink="http://www.w3.org/1999/xlink" width="512" height="512" viewBox="0,0,256,256"><g fill="#573f39" fill-rule="nonzero" stroke="none" stroke-width="1" stroke-linecap="butt" stroke-linejoin="miter" stroke-miterlimit="10" stroke-dasharray="" stroke-dashoffset="0" font-family="none" font-weight="none" font-size="none" text-anchor="none" style="mix-blend-mode: normal"><g transform="translate(-0.01408,0) scale(10.66667,10.66667)"><path d="M0.88,14.09l3.87,3.91c0.18777,0.18931 0.44336,0.2958 0.71,0.2958c0.26664,0 0.52223,-0.10649 0.71,-0.2958v0c0.18931,-0.18777 0.2958,-0.44336 0.2958,-0.71c0,-0.26664 -0.10649,-0.52223 -0.2958,-0.71l-3.56,-3.58h20.39c0.55228,0 1,-0.44772 1,-1v0c0,-0.55228 -0.44772,-1 -1,-1h-20.45l3.62,-3.62c0.36825,-0.3863 0.36825,-0.9937 0,-1.38v0c-0.18777,-0.18931 -0.44336,-0.2958 -0.71,-0.2958c-0.26664,0 -0.52223,0.10649 -0.71,0.2958l-3.87,3.85c-1.16981,1.17127 -1.16981,3.06873 0,4.24z"></path></g></g></svg>