<svg version="1.1" xmlns="http://www.w3.org/2000/svg" xmlns:xlink="http://www.w3.org/1999/xlink" width="512" height="512" viewBox="0,0,256,256"><g fill="#573f39" fill-rule="nonzero" stroke="none" stroke-width="1" stroke-linecap="butt" stroke-linejoin="miter" stroke-miterlimit="10" stroke-dasharray="" stroke-dashoffset="0" font-family="none" font-weight="none" font-size="none" text-anchor="none" style="mix-blend-mode: normal"><g transform="translate(-0.00041,0.00032) scale(10.66667,10.66667)"><g><path d="M23.002,21.584h0.227l-0.435,-0.658v0c0.266,0 0.407,-0.169 0.409,-0.376c0,-0.008 0,-0.017 -0.001,-0.025c0,-0.282 -0.17,-0.417 -0.519,-0.417h-0.564v1.476h0.212v-0.643h0.261zM22.577,20.774h-0.246v-0.499h0.312c0.161,0 0.345,0.026 0.345,0.237c0,0.242 -0.186,0.262 -0.412,0.262" id="Path_2525"></path><path d="M17.291,19.073h-3.007v-4.709c0,-1.123 -0.02,-2.568 -1.564,-2.568c-1.566,0 -1.806,1.223 -1.806,2.487v4.79h-3.006v-9.684h2.887v1.323h0.04c0.589,-1.006 1.683,-1.607 2.848,-1.564c3.048,0 3.609,2.005 3.609,4.612zM4.515,8.065c-0.964,0 -1.745,-0.781 -1.745,-1.745c0,-0.964 0.781,-1.745 1.745,-1.745c0.964,0 1.745,0.781 1.745,1.745c0,0.964 -0.781,1.745 -1.745,1.745v0M6.018,19.073h-3.01v-9.684h3.01zM18.79,1.783h-17.293c-0.817,-0.009 -1.487,0.646 -1.497,1.463v17.364c0.01,0.818 0.68,1.473 1.497,1.464h17.293c0.819,0.01 1.492,-0.645 1.503,-1.464v-17.365c-0.012,-0.819 -0.685,-1.474 -1.503,-1.463" id="Path_2520"></path><path d="M22.603,19.451c-0.764,0.007 -1.378,0.633 -1.37,1.397c0.007,0.764 0.633,1.378 1.397,1.37c0.764,-0.007 1.378,-0.633 1.37,-1.397c-0.007,-0.754 -0.617,-1.363 -1.37,-1.37h-0.027M22.635,22.059c-0.67,0.011 -1.254,-0.522 -1.265,-1.192c-0.011,-0.67 0.523,-1.222 1.193,-1.233c0.67,-0.011 1.222,0.523 1.233,1.193c0,0.007 0,0.013 0,0.02c0.014,0.655 -0.506,1.198 -1.161,1.212h-0.031" id="Path_2526"></path></g></g></g></svg>