<svg version="1.1" xmlns="http://www.w3.org/2000/svg" xmlns:xlink="http://www.w3.org/1999/xlink" width="512" height="512" viewBox="0,0,256,256"><g fill="#573f39" fill-rule="nonzero" stroke="none" stroke-width="1" stroke-linecap="butt" stroke-linejoin="miter" stroke-miterlimit="10" stroke-dasharray="" stroke-dashoffset="0" font-family="none" font-weight="none" font-size="none" text-anchor="none" style="mix-blend-mode: normal"><g transform="translate(0,-0.00533) scale(10.66667,10.66667)"><g><path d="M24,12.073c0,5.989 -4.394,10.954 -10.13,11.855v-8.363h2.789l0.531,-3.46h-3.32v-2.245c0,-0.947 0.464,-1.869 1.95,-1.869h1.509v-2.946c0,0 -1.37,-0.234 -2.679,-0.234c-2.734,0 -4.52,1.657 -4.52,4.656v2.637h-3.039v3.46h3.039v8.363c-5.735,-0.902 -10.13,-5.866 -10.13,-11.854c0,-6.627 5.373,-12 12,-12c6.627,0 12,5.372 12,12z"></path></g></g></g></svg>