<svg version="1.1" xmlns="http://www.w3.org/2000/svg" xmlns:xlink="http://www.w3.org/1999/xlink" width="512" height="512" viewBox="0,0,256,256"><g fill="#573f39" fill-rule="nonzero" stroke="none" stroke-width="1" stroke-linecap="butt" stroke-linejoin="miter" stroke-miterlimit="10" stroke-dasharray="" stroke-dashoffset="0" font-family="none" font-weight="none" font-size="none" text-anchor="none" style="mix-blend-mode: normal"><g transform="translate(0.09887,0.00562) scale(10.66667,10.66667)"><path d="M15,24c-3.39835,-0.00257 -6.63684,-1.44343 -8.914,-3.966c-2.29509,-2.52631 -3.39492,-5.91649 -3.02,-9.309c0.61382,-5.36162 4.69814,-9.67178 10.019,-10.573c1.67442,-0.25863 3.38317,-0.189 5.031,0.205c0.87866,0.22575 1.56608,0.90978 1.79616,1.78732c0.23008,0.87754 -0.03329,1.81086 -0.68816,2.43868c-4.56,4.166 -4.164,10.644 0.807,14.41c0.71582,0.56183 1.06984,1.46823 0.92429,2.36648c-0.14555,0.89826 -0.76768,1.64648 -1.62429,1.95352c-1.3982,0.45681 -2.86007,0.6887 -4.331,0.687zM15.076,2c-0.56145,-0.00135 -1.12215,0.04111 -1.677,0.127c-4.42997,0.74922 -7.83133,4.33647 -8.344,8.8c-0.31557,2.83217 0.60121,5.66337 2.517,7.773c2.83235,3.02305 7.18011,4.09313 11.092,2.73c0.16801,-0.06294 0.28942,-0.21107 0.31814,-0.38817c0.02872,-0.1771 -0.03964,-0.35601 -0.17914,-0.46883c-5.929,-4.478 -6.4,-12.486 -0.948,-17.449c0.1276,-0.11848 0.17718,-0.29896 0.128,-0.466c-0.04235,-0.17715 -0.17946,-0.31618 -0.356,-0.361c-0.83525,-0.20147 -1.6918,-0.3012 -2.551,-0.297z"></path></g></g></svg>