<svg version="1.1" xmlns="http://www.w3.org/2000/svg" xmlns:xlink="http://www.w3.org/1999/xlink" width="512" height="512" viewBox="0,0,256,256"><g fill="#573f39" fill-rule="nonzero" stroke="none" stroke-width="1" stroke-linecap="butt" stroke-linejoin="miter" stroke-miterlimit="10" stroke-dasharray="" stroke-dashoffset="0" font-family="none" font-weight="none" font-size="none" text-anchor="none" style="mix-blend-mode: normal"><g transform="scale(10.66667,10.66667)"><path d="M12,12c3.31371,0 6,-2.68629 6,-6c0,-3.31371 -2.68629,-6 -6,-6c-3.31371,0 -6,2.68629 -6,6c0.00331,3.31234 2.68766,5.99669 6,6zM12,2c2.20914,0 4,1.79086 4,4c0,2.20914 -1.79086,4 -4,4c-2.20914,0 -4,-1.79086 -4,-4c0,-2.20914 1.79086,-4 4,-4z"></path><path d="M12,14c-4.96828,0.00551 -8.99449,4.03172 -9,9c0,0.55228 0.44772,1 1,1c0.55228,0 1,-0.44772 1,-1c0,-3.86599 3.13401,-7 7,-7c3.86599,0 7,3.13401 7,7c0,0.55228 0.44772,1 1,1c0.55228,0 1,-0.44772 1,-1c-0.00551,-4.96828 -4.03172,-8.99449 -9,-9z"></path></g></g></svg>