<svg version="1.1" xmlns="http://www.w3.org/2000/svg" xmlns:xlink="http://www.w3.org/1999/xlink" width="512" height="512" viewBox="0,0,256,256"><g fill="#573f39" fill-rule="nonzero" stroke="none" stroke-width="1" stroke-linecap="butt" stroke-linejoin="miter" stroke-miterlimit="10" stroke-dasharray="" stroke-dashoffset="0" font-family="none" font-weight="none" font-size="none" text-anchor="none" style="mix-blend-mode: normal"><g transform="scale(10.66667,10.66667)"><path d="M23.707,0.293v0c-0.3905,-0.39038 -1.0235,-0.39038 -1.414,0l-10.293,10.293l-10.293,-10.293c-0.3905,-0.39038 -1.0235,-0.39038 -1.414,0v0c-0.39038,0.3905 -0.39038,1.0235 0,1.414l10.293,10.293l-10.293,10.293c-0.39038,0.3905 -0.39038,1.0235 0,1.414v0c0.3905,0.39038 1.0235,0.39038 1.414,0l10.293,-10.293l10.293,10.293c0.3905,0.39038 1.0235,0.39038 1.414,0v0c0.39038,-0.3905 0.39038,-1.0235 0,-1.414l-10.293,-10.293l10.293,-10.293c0.39038,-0.3905 0.39038,-1.0235 0,-1.414z"></path></g></g></svg>