<svg version="1.1" xmlns="http://www.w3.org/2000/svg" xmlns:xlink="http://www.w3.org/1999/xlink" width="512" height="512" viewBox="0,0,256,256"><g fill="#573f39" fill-rule="nonzero" stroke="none" stroke-width="1" stroke-linecap="butt" stroke-linejoin="miter" stroke-miterlimit="10" stroke-dasharray="" stroke-dashoffset="0" font-family="none" font-weight="none" font-size="none" text-anchor="none" style="mix-blend-mode: normal"><g transform="translate(-0.00008,-0.019) scale(10.66667,10.66667)"><path d="M20.137,24c-0.74722,-0.00205 -1.46261,-0.30269 -1.987,-0.835l-6.15,-6.114l-6.15,6.118c-0.8083,0.82008 -2.03625,1.06171 -3.095,0.609c-1.0693,-0.4301 -1.76581,-1.47149 -1.755,-2.624v-16.154c0,-2.76142 2.23858,-5 5,-5h12c2.76142,0 5,2.23858 5,5v16.154c0.01146,1.15152 -0.68327,2.19263 -1.751,2.624c-0.35219,0.1473 -0.73025,0.22277 -1.112,0.222zM6,2c-1.65685,0 -3,1.34315 -3,3v16.154c-0.00074,0.34076 0.20374,0.64845 0.51819,0.77974c0.31445,0.13129 0.67702,0.06037 0.91881,-0.17974v0l6.863,-6.821c0.39004,-0.38772 1.01996,-0.38772 1.41,0l6.855,6.819c0.24179,0.24011 0.60436,0.31103 0.91881,0.17974c0.31445,-0.13129 0.51893,-0.43898 0.51819,-0.77974v-16.152c0,-1.65685 -1.34315,-3 -3,-3z"></path></g></g></svg>