<svg version="1.1" xmlns="http://www.w3.org/2000/svg" xmlns:xlink="http://www.w3.org/1999/xlink" width="512" height="512" viewBox="0,0,256,256"><g fill="#573f39" fill-rule="nonzero" stroke="none" stroke-width="1" stroke-linecap="butt" stroke-linejoin="miter" stroke-miterlimit="10" stroke-dasharray="" stroke-dashoffset="0" font-family="none" font-weight="none" font-size="none" text-anchor="none" style="mix-blend-mode: normal"><g transform="translate(-5.31659,0.02173) scale(10.66667,10.66667)"><path d="M17.17,24c-0.2658,0.00154 -0.52128,-0.10281 -0.71,-0.29l-8.17,-8.17c-0.94042,-0.93804 -1.46894,-2.21173 -1.46894,-3.54c0,-1.32827 0.52852,-2.60196 1.46894,-3.54l8.17,-8.17c0.39212,-0.39212 1.02788,-0.39212 1.42,0c0.39212,0.39212 0.39212,1.02788 0,1.42l-8.17,8.17c-1.16981,1.17127 -1.16981,3.06873 0,4.24l8.17,8.17c0.18931,0.18777 0.2958,0.44336 0.2958,0.71c0,0.26664 -0.10649,0.52223 -0.2958,0.71c-0.18872,0.18719 -0.4442,0.29154 -0.71,0.29z"></path></g></g></svg>