<svg version="1.1" xmlns="http://www.w3.org/2000/svg" xmlns:xlink="http://www.w3.org/1999/xlink" width="512" height="512" viewBox="0,0,256,256"><g fill="#573f39" fill-rule="nonzero" stroke="none" stroke-width="1" stroke-linecap="butt" stroke-linejoin="miter" stroke-miterlimit="10" stroke-dasharray="" stroke-dashoffset="0" font-family="none" font-weight="none" font-size="none" text-anchor="none" style="mix-blend-mode: normal"><g transform="scale(10.66667,10.66667)"><path d="M21,4h-3.1c-0.47843,-2.32642 -2.5249,-3.997 -4.9,-4h-2c-2.3751,0.003 -4.42157,1.67358 -4.9,4h-3.1c-0.55228,0 -1,0.44772 -1,1c0,0.55228 0.44772,1 1,1h1v13c0.00331,2.76005 2.23995,4.99669 5,5h6c2.76005,-0.00331 4.99669,-2.23995 5,-5v-13h1c0.55228,0 1,-0.44772 1,-1c0,-0.55228 -0.44772,-1 -1,-1zM11,2h2c1.27099,0.00155 2.40365,0.8023 2.829,2h-7.658c0.42535,-1.1977 1.55801,-1.99845 2.829,-2zM18,19c0,1.65685 -1.34315,3 -3,3h-6c-1.65685,0 -3,-1.34315 -3,-3v-13h12z"></path><path d="M10,18c0.55228,0 1,-0.44772 1,-1v-6c0,-0.55228 -0.44772,-1 -1,-1c-0.55228,0 -1,0.44772 -1,1v6c0,0.55228 0.44772,1 1,1z"></path><path d="M14,18c0.55228,0 1,-0.44772 1,-1v-6c0,-0.55228 -0.44772,-1 -1,-1c-0.55228,0 -1,0.44772 -1,1v6c0,0.55228 0.44772,1 1,1z"></path></g></g></svg>