<svg version="1.1" xmlns="http://www.w3.org/2000/svg" xmlns:xlink="http://www.w3.org/1999/xlink" width="512" height="512" viewBox="0,0,256,256"><g fill="#573f39" fill-rule="nonzero" stroke="none" stroke-width="1" stroke-linecap="butt" stroke-linejoin="miter" stroke-miterlimit="10" stroke-dasharray="" stroke-dashoffset="0" font-family="none" font-weight="none" font-size="none" text-anchor="none" style="mix-blend-mode: normal"><g transform="scale(10.66667,10.66667)"><path d="M18.5,0h-13c-3.0362,0.00331 -5.49669,2.4638 -5.5,5.5v13c0.00331,3.0362 2.4638,5.49669 5.5,5.5h13c3.0362,-0.00331 5.49669,-2.4638 5.5,-5.5v-13c-0.00331,-3.0362 -2.4638,-5.49669 -5.5,-5.5zM21,18.5c0,1.38071 -1.11929,2.5 -2.5,2.5h-0.5v-1c0,-3.31371 -2.68629,-6 -6,-6c-3.31371,0 -6,2.68629 -6,6v1h-0.5c-1.38071,0 -2.5,-1.11929 -2.5,-2.5v-13c0,-1.38071 1.11929,-2.5 2.5,-2.5h13c1.38071,0 2.5,1.11929 2.5,2.5z"></path><circle cx="12" cy="8.5" r="3.5"></circle></g></g></svg>